# xmcd
#
# Track frame offsets:
# 150
# 19092
# 32319
# 44034
# 53207
# 65822
# 79264
# 89542
# 108443
# 121671
# 133373
# 142469
# 155092
# 168529
# 189955
#
# Disc length: 3166 seconds
#
# Revision: 0
# Processed by: cddbd v1.5.1PL2 Copyright (c) Steve Scherf et al.
# Submitted via: plextools 2.32a
#
DISCID=dd0c5c0f
DTITLE=シスターラビッツ - ハッピーソング
DYEAR=2005
DGENRE=Pop
TTITLE0=シスターラビッツ - ハッピーソング
TTITLE1=シスターラビッツ - アイム レディオ
TTITLE2=シスターラビッツ - ロックン オムレツ
TTITLE3=シスターラビッツ - 一寸桃金太郎
TTITLE4=シスターラビッツ - げんき!
TTITLE5=シスターラビッツ - さあ冒険だ
TTITLE6=シスターラビッツ - みんな あさごはん
TTITLE7=シスターラビッツ - ハッピーソング(カラオケ)
TTITLE8=シスターラビッツ - アイム レディオ(カラオケ)
TTITLE9=シスターラビッツ - ロックン オムレツ(カラオケ)
TTITLE10=シスターラビッツ - 一寸桃金太郎(カラオケ)
TTITLE11=シスターラビッツ - げんき!(カラオケ)
TTITLE12=シスターラビッツ - さあ冒険だ(カラオケ)
TTITLE13=シスターラビッツ - みんな あさごはん(カラオケ)
TTITLE14=シスターラビッツ - ハッピーソング(VIDEO CLIP)
EXTD=
EXTT0=
EXTT1=
EXTT2=
EXTT3=
EXTT4=
EXTT5=
EXTT6=
EXTT7=
EXTT8=
EXTT9=
EXTT10=
EXTT11=
EXTT12=
EXTT13=
EXTT14=
PLAYORDER=
